# xmcd
#
# Track frame offsets:
# 150
# 15859
# 31646
# 53724
# 69495
#
# Disc length: 1128 seconds
#
# Revision: 1
# Processed by: cddbd v1.5.2PL0 Copyright (c) Steve Scherf et al.
# Submitted via: CedeCatalogueitor 2.6.0.6 http://personales.ya.com/cdcatalogueitor
#
DISCID=2c046605
DTITLE=Pop Levi - Pick-Me-Up Uppercut [CD Single)
DYEAR=1900
DGENRE=
TTITLE0=Pick-Me-Up Uppercut (Radio Edit)
TTITLE1=Pick-Me-Up Uppercut (Hollywood Version)
TTITLE2=Skip Ghetto (Hollywood Version)
TTITLE3=Pick-Me-Up Uppercut (Album Version)
TTITLE4=Pick-Me-Up Uppercut (Radio Instrumental)
EXTD=
EXTT0=
EXTT1=
EXTT2=
EXTT3=
EXTT4=
PLAYORDER=
